<?xml version="1.0" standalone="no"?>
<!DOCTYPE svg PUBLIC "-//W3C//DTD SVG 20010904//EN"
 "http://www.w3.org/TR/2001/REC-SVG-20010904/DTD/svg10.dtd">
<svg version="1.0" xmlns="http://www.w3.org/2000/svg"
 width="1088.000000pt" height="1088.000000pt" viewBox="0 0 1088.000000 1088.000000"
 preserveAspectRatio="xMidYMid meet">
<metadata>
Created by potrace 1.14, written by Peter Selinger 2001-2017
</metadata>
<g transform="translate(0.000000,1088.000000) scale(0.100000,-0.100000)"
fill="#000000" stroke="none">
<path d="M4062 9530 c-23 -11 -44 -20 -47 -20 -9 -1 -40 -12 -70 -25 -16 -7
-73 -29 -125 -48 -52 -20 -108 -41 -125 -48 -16 -7 -34 -13 -40 -15 -5 -1 -41
-15 -80 -29 -38 -15 -74 -28 -80 -29 -5 -2 -17 -6 -25 -9 -32 -14 -266 -99
-280 -102 -8 -2 -40 -13 -70 -25 -30 -12 -66 -25 -80 -30 -14 -4 -97 -34 -185
-65 -88 -31 -173 -61 -190 -66 -16 -5 -39 -13 -50 -18 -19 -8 -114 -44 -125
-46 -33 -8 -67 -19 -75 -25 -5 -4 -55 -22 -110 -40 -55 -18 -104 -35 -110 -39
-5 -3 -12 -6 -15 -6 -13 -2 -58 -18 -89 -32 -18 -8 -39 -16 -45 -17 -18 -3
-89 -27 -111 -36 -11 -5 -72 -28 -135 -51 -104 -37 -221 -80 -565 -209 -60
-23 -124 -48 -142 -56 -17 -8 -33 -14 -36 -14 -3 0 -18 -5 -34 -12 -15 -6 -30
-12 -33 -13 -3 -1 -18 -7 -35 -14 -16 -6 -49 -19 -73 -28 -23 -9 -45 -20 -48
-24 -2 -4 -11 -6 -19 -2 -8 3 -15 0 -15 -6 0 -6 -8 -11 -17 -11 -10 0 -40 -11
-68 -25 -27 -13 -54 -25 -58 -25 -5 0 -23 -6 -40 -14 -18 -8 -102 -44 -187
-79 -138 -58 -201 -85 -305 -132 -17 -7 -51 -23 -78 -34 l-47 -20 0 -214 c0
-118 3 -217 7 -221 5 -4 8 -11 9 -14 1 -9 14 -39 50 -117 15 -33 28 -62 29
-65 0 -3 8 -21 17 -40 42 -92 78 -174 83 -190 4 -11 27 -66 40 -95 11 -25 81
-190 116 -275 6 -14 11 -27 11 -30 0 -3 6 -16 13 -30 7 -14 21 -45 31 -70 10
-25 25 -63 35 -85 27 -62 251 -619 253 -630 3 -10 14 -40 42 -110 9 -22 20
-50 25 -62 5 -13 13 -33 18 -45 22 -52 121 -309 121 -313 0 -2 5 -16 12 -32 6
-15 12 -30 13 -33 1 -3 7 -18 14 -35 6 -16 16 -43 22 -60 6 -16 15 -39 20 -50
30 -70 57 -145 52 -145 -3 0 -1 -6 4 -12 6 -7 16 -31 23 -53 7 -22 17 -46 23
-52 5 -7 7 -13 4 -13 -3 0 5 -25 19 -55 13 -31 24 -59 24 -64 0 -5 6 -24 14
-42 8 -19 15 -38 16 -44 1 -5 7 -19 13 -30 6 -11 12 -23 13 -27 1 -5 3 -10 4
-13 1 -3 3 -8 5 -12 1 -5 5 -15 8 -23 4 -8 41 -107 82 -220 42 -113 87 -232
100 -265 13 -33 38 -98 55 -145 17 -47 35 -94 40 -105 4 -11 30 -76 55 -145
26 -69 58 -152 70 -185 13 -33 42 -109 65 -170 22 -60 45 -119 49 -130 5 -11
37 -92 70 -180 34 -88 66 -169 70 -180 5 -11 75 -186 156 -390 81 -203 153
-385 161 -402 8 -18 20 -48 28 -65 8 -18 29 -69 46 -113 17 -44 35 -83 39 -88
4 -4 50 8 102 26 52 19 150 53 219 76 69 24 132 45 140 49 8 3 17 6 20 7 3 1
12 4 20 8 22 9 173 59 185 61 6 1 16 5 22 9 7 5 21 10 30 12 10 2 52 15 93 30
41 14 91 31 110 36 19 6 44 14 55 19 11 5 112 39 225 77 113 37 208 73 212 78
4 6 8 7 8 3 0 -4 78 20 173 53 94 33 233 80 307 105 74 25 144 49 155 54 29
13 215 80 250 90 30 9 262 93 300 109 11 5 45 18 75 29 139 52 348 132 375
143 17 7 32 13 35 14 10 3 65 27 82 36 10 5 25 9 33 9 8 0 15 5 15 11 0 5 3 8
8 5 4 -2 25 4 47 14 22 11 43 19 47 20 4 0 31 11 60 24 29 13 82 36 118 51 78
32 298 130 395 176 39 18 72 33 75 34 3 0 38 17 78 38 40 20 76 38 80 39 14 6
5 56 -47 253 -29 110 -54 207 -56 215 -2 8 -11 42 -20 75 -9 33 -20 78 -25
100 -5 22 -14 58 -20 80 -6 22 -13 51 -16 65 -3 14 -12 48 -20 76 -8 28 -17
62 -20 75 -6 29 -7 33 -24 89 -7 25 -24 83 -37 130 -13 47 -28 94 -33 105 -5
11 -20 56 -34 100 -40 127 -103 299 -131 362 -21 44 -19 53 13 53 63 0 84 83
24 96 -88 19 -108 68 -116 289 -1 34 -4 40 -22 37 -16 -2 -25 7 -39 38 -10 22
-45 66 -77 97 -32 32 -58 62 -58 69 0 6 29 50 64 97 90 121 101 164 55 210
-23 22 -107 67 -125 67 -8 0 -14 5 -14 10 0 6 -7 10 -15 10 -8 0 -15 5 -15 10
0 6 -6 10 -13 10 -14 0 -47 60 -47 85 0 20 6 19 57 -6 52 -25 93 -20 93 13 0
12 -3 18 -6 15 -4 -4 -19 2 -34 13 -16 11 -33 20 -40 20 -6 0 -8 5 -5 10 3 6
2 10 -4 10 -14 0 -36 45 -50 105 -17 70 -51 110 -113 134 -33 12 -52 25 -50
33 2 7 6 67 9 133 9 202 -27 400 -109 599 -30 73 -111 241 -151 311 -73 131
-287 458 -307 470 -24 15 -8 32 33 33 50 2 93 18 101 38 3 8 -5 29 -18 48 -12
19 -29 49 -36 67 -8 19 -17 36 -20 39 -4 3 -12 19 -18 35 -6 17 -27 73 -47
125 -20 52 -65 178 -99 280 -114 332 -178 475 -268 597 -52 71 -131 153 -146
153 -7 0 -12 5 -12 10 0 6 -44 10 -112 9 -88 0 -122 -5 -156 -19z m-92 -890
c6 -11 8 -20 5 -20 -3 0 4 -18 15 -40 11 -21 20 -46 20 -55 0 -8 5 -15 12 -15
6 0 9 -3 5 -6 -3 -4 2 -23 12 -43 11 -20 20 -40 21 -46 4 -16 10 -32 77 -195
35 -85 71 -175 80 -200 8 -25 19 -49 23 -55 4 -5 13 -28 20 -50 7 -22 16 -44
20 -50 12 -17 175 -430 172 -437 -1 -5 3 -8 8 -8 6 0 10 -6 10 -12 0 -11 117
-311 149 -383 43 -97 51 -116 51 -125 0 -6 4 -18 9 -28 14 -28 29 -64 51 -122
11 -30 24 -64 29 -75 5 -11 13 -31 18 -45 6 -14 21 -50 33 -80 12 -30 26 -64
30 -75 5 -11 32 -81 61 -155 30 -74 54 -137 55 -140 2 -13 17 -48 30 -72 8
-16 12 -28 8 -28 -3 0 -2 -6 3 -12 5 -7 20 -42 32 -78 12 -36 29 -78 39 -95 9
-16 15 -31 14 -33 -1 -1 5 -18 13 -38 8 -20 15 -40 15 -43 0 -4 18 -52 39
-107 21 -54 53 -137 70 -184 18 -47 36 -94 40 -105 21 -47 55 -151 53 -157 -1
-5 2 -8 6 -8 4 0 14 -21 21 -47 8 -27 17 -52 21 -58 8 -11 22 -63 18 -67 -2
-2 5 -14 15 -28 9 -13 17 -34 17 -45 0 -12 4 -25 9 -30 8 -9 49 -119 56 -149
1 -6 9 -28 19 -48 9 -21 16 -41 16 -46 0 -5 9 -31 19 -58 20 -51 32 -85 33
-94 0 -3 9 -27 20 -55 21 -53 77 -210 84 -235 3 -12 61 -182 137 -400 36 -103
66 -200 69 -219 3 -21 -7 -29 -69 -61 -40 -20 -73 -34 -73 -31 0 3 -4 1 -8 -4
-4 -6 -36 -24 -72 -39 -36 -16 -94 -42 -130 -58 -36 -16 -74 -33 -85 -38 -11
-5 -47 -21 -80 -36 -33 -14 -143 -60 -245 -101 -102 -41 -196 -80 -210 -86
-30 -12 -28 -12 -65 -22 -16 -4 -34 -11 -40 -15 -12 -8 -204 -78 -220 -80 -3
0 -25 -9 -50 -20 -25 -11 -45 -16 -45 -12 0 4 -4 2 -8 -3 -4 -6 -29 -18 -57
-27 -78 -25 -288 -98 -305 -105 -8 -3 -17 -7 -20 -7 -20 -5 -849 -279 -865
-286 -15 -7 -153 -51 -205 -65 -3 -1 -12 -4 -20 -8 -8 -3 -87 -29 -175 -57
-88 -28 -169 -55 -180 -60 -11 -5 -40 -15 -65 -23 -25 -8 -52 -18 -61 -21 -12
-5 -20 4 -35 41 -10 26 -19 53 -20 58 -1 6 -18 64 -38 130 -19 66 -37 129 -39
140 -2 11 -7 27 -10 35 -4 8 -9 26 -11 40 -3 14 -7 34 -10 45 -6 26 -45 193
-53 225 -3 14 -7 30 -8 36 -3 12 -63 279 -70 309 -2 11 -9 40 -16 65 -6 25
-12 53 -14 62 -9 43 -59 220 -82 288 -13 41 -26 80 -27 85 -2 6 -8 23 -14 38
-7 16 -12 31 -12 33 0 20 -124 273 -159 324 -17 25 -31 51 -31 58 0 6 -4 12
-8 12 -4 0 -15 12 -24 28 -13 21 -14 32 -6 47 26 47 43 45 104 -11 65 -60 100
-78 54 -28 -59 65 -60 73 -47 217 6 56 -10 115 -33 127 -9 5 -28 11 -41 14
-114 21 -109 16 -83 93 9 26 18 71 20 98 6 106 -33 146 -143 146 -44 0 -50 7
-33 38 32 60 33 267 1 399 -23 100 -65 219 -108 310 -14 31 -28 63 -29 70 -1
8 -9 21 -16 30 -8 10 -24 37 -37 62 -13 25 -30 52 -37 61 -8 8 -14 21 -14 27
0 7 -4 12 -10 12 -5 0 -10 5 -10 10 0 6 -9 20 -20 32 -11 12 -20 28 -20 35 0
7 -5 13 -10 13 -6 0 -14 8 -17 18 -4 9 -19 29 -35 45 -15 15 -24 27 -20 27 4
0 2 4 -4 8 -5 4 -29 28 -53 54 -33 36 -41 52 -36 68 6 20 8 20 24 6 10 -9 20
-16 22 -16 12 0 17 174 6 220 -3 14 -8 34 -10 45 -7 28 -73 199 -89 227 -7 13
-13 25 -13 28 -1 3 -27 59 -59 125 -103 212 -142 327 -148 433 l-3 54 57 23
c31 13 59 21 61 19 2 -3 10 2 17 11 7 8 23 15 36 15 12 0 25 4 28 9 3 5 16 11
29 15 13 3 41 13 63 23 21 9 41 17 44 18 8 1 72 26 117 46 24 11 45 19 47 19
4 0 230 87 301 115 11 5 22 9 25 10 3 1 19 7 35 14 17 7 53 21 80 31 28 10
115 44 195 75 80 31 150 58 155 59 6 2 23 8 38 14 15 7 39 15 53 18 13 3 27
10 30 15 3 5 13 9 22 9 9 0 28 6 42 13 14 8 47 20 73 27 26 8 47 17 47 20 0 3
9 6 20 7 11 1 35 9 52 17 17 9 36 16 41 16 9 0 157 52 202 71 30 13 544 182
663 219 217 67 468 139 484 139 10 1 22 -8 28 -19z"/>
<path d="M6844 9112 c-10 -10 -41 -33 -69 -52 -27 -19 -51 -38 -53 -42 -2 -5
-8 -8 -14 -8 -6 0 -25 -10 -42 -23 -17 -13 -53 -36 -81 -52 -27 -15 -81 -48
-118 -72 l-68 -44 6 -42 c7 -43 13 -56 70 -146 18 -29 31 -60 28 -68 -3 -8 -8
-12 -11 -9 -2 3 -14 0 -25 -6 -11 -6 -41 -13 -66 -15 -81 -7 -160 -60 -162
-107 0 -12 -2 -30 -4 -41 -3 -11 -6 -33 -8 -50 -3 -16 -7 -37 -10 -45 -4 -8
-8 -28 -11 -45 -2 -16 -5 -31 -6 -32 -3 -3 -4 -7 -14 -58 -4 -22 -12 -46 -18
-52 -6 -7 -8 -13 -5 -13 4 0 -1 -19 -9 -42 -9 -24 -17 -48 -18 -55 -1 -7 -5
-16 -9 -19 -4 -4 -7 -14 -7 -23 0 -14 -45 -141 -70 -196 -5 -11 -12 -31 -16
-45 -4 -14 -17 -47 -29 -75 -64 -142 -166 -433 -190 -535 -1 -8 -8 -33 -14
-55 -5 -22 -13 -58 -16 -80 -2 -22 -7 -53 -10 -69 -5 -26 -13 -113 -17 -191
-1 -17 1 -38 5 -47 3 -10 2 -20 -4 -23 -5 -4 -7 -11 -3 -16 3 -6 8 -40 10 -77
6 -112 11 -122 79 -159 22 -12 61 -17 155 -19 119 -2 171 -11 184 -32 3 -5 -4
-10 -17 -10 -34 0 -49 -5 -71 -24 -11 -10 -23 -18 -27 -18 -4 0 -9 -8 -13 -17
-3 -10 -9 -23 -12 -30 -7 -15 29 -9 116 19 231 76 393 266 501 588 17 52 33
102 34 110 2 8 4 15 5 15 1 0 3 7 5 15 1 8 8 35 15 60 7 25 14 53 16 62 2 10
6 26 8 36 2 10 11 47 20 83 8 35 29 123 46 194 28 119 72 278 87 315 4 8 7 17
7 20 8 34 42 110 50 110 5 0 7 3 3 6 -9 9 55 127 108 199 46 63 69 84 80 76 5
-4 30 -14 55 -21 25 -8 56 -20 70 -27 14 -7 29 -13 34 -13 5 0 59 -18 120 -41
61 -23 116 -42 121 -43 6 -1 16 -5 23 -9 6 -5 12 -6 12 -2 0 3 10 1 21 -6 19
-10 429 -154 469 -165 64 -17 596 -200 598 -206 2 -5 7 -6 12 -3 4 3 24 -2 44
-10 20 -8 38 -15 41 -15 3 0 10 -3 17 -5 34 -12 265 -87 278 -90 8 -2 56 -18
105 -35 50 -18 95 -33 100 -34 32 -7 813 -268 828 -276 10 -6 22 -8 27 -5 6 4
10 1 10 -6 0 -7 3 -10 6 -6 4 3 20 -1 36 -9 31 -16 31 -28 1 -86 -7 -16 -11
-28 -8 -28 3 0 -1 -13 -10 -30 -8 -16 -16 -33 -16 -37 -1 -5 -6 -19 -11 -33
-5 -14 -25 -68 -43 -120 -18 -52 -61 -174 -95 -270 -34 -96 -62 -179 -64 -185
-1 -5 -12 -37 -25 -70 -13 -33 -24 -67 -26 -75 -2 -8 -17 -53 -35 -100 -17
-47 -33 -92 -35 -100 -4 -16 -62 -185 -72 -210 -3 -8 -7 -19 -8 -25 -2 -5 -20
-57 -40 -115 -20 -58 -38 -109 -39 -115 -2 -5 -6 -17 -9 -25 -18 -41 -45 -130
-40 -130 3 0 1 -6 -4 -12 -6 -7 -16 -31 -22 -53 -7 -22 -16 -49 -21 -60 -10
-22 -119 -341 -125 -365 -2 -8 -36 -107 -75 -220 -39 -113 -77 -223 -85 -245
-19 -60 -185 -535 -255 -735 -34 -96 -66 -186 -70 -200 -10 -29 -90 -254 -148
-415 -22 -60 -56 -155 -76 -210 -20 -55 -40 -109 -45 -120 -5 -11 -23 -60 -41
-110 -17 -49 -36 -101 -42 -115 -7 -14 -12 -28 -14 -32 -1 -5 -2 -9 -4 -10 -1
-2 -3 -10 -5 -18 -2 -8 -18 -51 -35 -95 -18 -44 -33 -87 -35 -95 -5 -21 -54
-141 -65 -162 -6 -10 -10 -23 -10 -29 0 -26 -43 -108 -54 -102 -6 4 -22 8 -36
9 -56 5 -328 82 -370 104 -14 7 -26 13 -27 12 -2 -1 -5 -1 -8 -1 -3 1 -9 3
-15 4 -5 1 -11 3 -12 5 -2 1 -10 3 -18 5 -9 1 -193 73 -410 160 -217 86 -420
166 -450 177 -30 11 -64 24 -75 29 -54 22 -358 105 -424 115 -20 3 -49 7 -66
10 -138 21 -301 24 -417 8 -51 -7 -96 -13 -100 -14 -13 0 23 -104 61 -174 59
-113 196 -236 350 -315 104 -53 288 -120 546 -199 39 -12 114 -36 167 -53 54
-17 100 -30 104 -29 4 1 10 -2 13 -7 3 -4 24 -14 46 -21 22 -8 76 -27 120 -44
44 -17 85 -31 90 -33 6 -1 17 -5 25 -8 138 -53 707 -226 880 -267 25 -6 54
-13 65 -16 19 -5 33 -8 80 -18 11 -3 52 -12 90 -21 89 -21 103 -24 140 -29 17
-3 42 -7 55 -11 21 -5 27 -1 37 22 15 35 56 145 59 158 3 12 92 252 104 280 5
11 23 61 40 110 18 50 48 133 67 185 19 52 36 103 38 113 2 9 6 21 10 26 3 5
24 63 46 128 23 65 45 127 49 138 4 11 8 23 9 27 1 7 15 45 37 103 4 11 8 22
9 25 0 3 12 37 25 75 13 39 24 72 25 75 0 3 3 10 6 15 4 6 19 48 34 95 15 47
30 90 34 95 3 6 6 15 7 20 7 33 138 402 146 413 6 6 8 12 5 12 -3 0 6 33 19
72 14 40 27 78 28 83 2 6 6 17 9 25 12 30 99 286 109 320 6 19 15 41 20 48 6
6 8 12 5 12 -4 0 12 51 34 113 22 61 42 119 44 127 2 8 17 52 33 98 17 45 29
82 27 82 -3 0 5 21 16 48 12 26 22 54 24 62 4 16 92 276 102 300 3 8 7 20 9
25 1 6 20 62 42 125 22 63 52 151 67 195 14 44 30 89 35 100 5 11 32 90 61
175 29 85 57 161 62 168 5 6 6 12 2 12 -4 0 -3 6 2 13 8 10 17 33 28 77 5 22
29 87 35 95 3 6 13 30 20 55 7 25 16 50 19 55 3 6 6 15 8 20 1 6 11 34 21 63
11 28 18 52 16 52 -2 0 5 18 16 40 11 22 18 40 14 40 -4 0 -2 6 3 13 6 6 22
46 36 87 14 41 34 98 46 126 11 29 17 55 14 58 -4 3 -1 6 5 6 7 0 12 6 12 13
0 7 30 92 66 188 36 95 72 194 81 219 8 25 21 59 28 75 7 17 27 68 44 115 18
47 39 100 47 118 9 22 14 68 14 140 0 100 -1 108 -22 122 -48 30 -456 232
-478 235 -3 1 -36 16 -75 34 -38 18 -74 34 -80 35 -5 1 -28 10 -50 20 -22 10
-141 58 -265 107 -124 50 -235 94 -247 99 -48 21 -71 30 -173 69 -159 60 -165
62 -170 63 -3 1 -51 21 -107 44 -57 23 -103 39 -103 36 0 -4 -4 -2 -8 3 -4 6
-24 16 -46 24 -21 7 -59 23 -85 34 -25 12 -48 21 -51 22 -25 3 -399 172 -410
185 -6 7 -32 18 -40 17 -3 -1 -22 11 -44 25 -35 24 -41 25 -60 13 -39 -26 -77
-14 -312 96 -205 95 -356 127 -456 96 l-48 -15 -10 42 c-43 169 -134 244 -365
300 -60 15 -117 29 -125 31 -8 2 -16 4 -17 5 -2 2 -7 3 -11 4 -18 3 -99 42
-121 58 -29 22 -33 22 -57 0z"/>
<path d="M5840 5760 c-23 -14 -17 -71 13 -115 l27 -40 -3 73 c-4 77 -13 97
-37 82z"/>
<path d="M5875 5590 c-3 -5 -1 -10 4 -10 6 0 11 5 11 10 0 6 -2 10 -4 10 -3 0
-8 -4 -11 -10z"/>
</g>
</svg>
